{
    "asset" : {
        "generator" : "Khronos glTF Blender I/O v3.2.43",
        "version" : "2.0"
    },
    "scene" : 0,
    "scenes" : [
        {
            "name" : "Scene",
            "nodes" : [
                0
            ]
        }
    ],
    "nodes" : [
        {
            "mesh" : 0,
            "name" : "Cube.007"
        }
    ],
    "materials" : [
        {
            "doubleSided" : true,
            "name" : "Fence03",
            "pbrMetallicRoughness" : {}
        }
    ],
    "meshes" : [
        {
            "name" : "Cube.007",
            "primitives" : [
                {
                    "attributes" : {
                        "POSITION" : 0,
                        "NORMAL" : 1,
                        "TEXCOORD_0" : 2,
                        "TEXCOORD_1" : 3
                    },
                    "indices" : 4,
                    "material" : 0
                }
            ]
        }
    ],
    "accessors" : [
        {
            "bufferView" : 0,
            "componentType" : 5126,
            "count" : 616,
            "max" : [
                2.108524799346924,
                1.6105525493621826,
                0.021601853892207146
            ],
            "min" : [
                -2.091651678085327,
                0.050551652908325195,
                -0.08336831629276276
            ],
            "type" : "VEC3"
        },
        {
            "bufferView" : 1,
            "componentType" : 5126,
            "count" : 616,
            "type" : "VEC3"
        },
        {
            "bufferView" : 2,
            "componentType" : 5126,
            "count" : 616,
            "type" : "VEC2"
        },
        {
            "bufferView" : 3,
            "componentType" : 5126,
            "count" : 616,
            "type" : "VEC2"
        },
        {
            "bufferView" : 4,
            "componentType" : 5123,
            "count" : 924,
            "type" : "SCALAR"
        }
    ],
    "bufferViews" : [
        {
            "buffer" : 0,
            "byteLength" : 7392,
            "byteOffset" : 0
        },
        {
            "buffer" : 0,
            "byteLength" : 7392,
            "byteOffset" : 7392
        },
        {
            "buffer" : 0,
            "byteLength" : 4928,
            "byteOffset" : 14784
        },
        {
            "buffer" : 0,
            "byteLength" : 4928,
            "byteOffset" : 19712
        },
        {
            "buffer" : 0,
            "byteLength" : 1848,
            "byteOffset" : 24640
        }
    ],
    "buffers" : [
        {
            "byteLength" : 26488,
            "uri" : "data:application/octet-stream;base64,"
        }
    ]
}
