{
    "asset" : {
        "copyright" : "ukho2008",
        "generator" : "Khronos glTF Blender I/O v3.2.43",
        "version" : "2.0"
    },
    "scene" : 0,
    "scenes" : [
        {
            "name" : "Scene",
            "nodes" : [
                0,
                1
            ]
        }
    ],
    "nodes" : [
        {
            "mesh" : 0,
            "name" : "Cube.002"
        },
        {
            "mesh" : 1,
            "name" : "Cube.001"
        }
    ],
    "materials" : [
        {
            "doubleSided" : true,
            "name" : "Fence03",
            "pbrMetallicRoughness" : {}
        },
        {
            "doubleSided" : true,
            "name" : "\u041c\u0430\u0442\u0435\u0440\u0438\u0430\u043b",
            "pbrMetallicRoughness" : {}
        },
        {
            "doubleSided" : true,
            "name" : "\u041c\u0430\u0442\u0435\u0440\u0438\u0430\u043b.001",
            "pbrMetallicRoughness" : {}
        }
    ],
    "meshes" : [
        {
            "name" : "Cube.002",
            "primitives" : [
                {
                    "attributes" : {
                        "POSITION" : 0,
                        "NORMAL" : 1,
                        "TEXCOORD_0" : 2,
                        "TEXCOORD_1" : 3
                    },
                    "indices" : 4,
                    "material" : 0
                }
            ]
        },
        {
            "name" : "Cube.001",
            "primitives" : [
                {
                    "attributes" : {
                        "POSITION" : 5,
                        "NORMAL" : 6,
                        "TEXCOORD_0" : 7,
                        "TEXCOORD_1" : 8
                    },
                    "indices" : 9,
                    "material" : 1
                },
                {
                    "attributes" : {
                        "POSITION" : 10,
                        "NORMAL" : 11,
                        "TEXCOORD_0" : 12,
                        "TEXCOORD_1" : 13
                    },
                    "indices" : 14,
                    "material" : 2
                }
            ]
        }
    ],
    "accessors" : [
        {
            "bufferView" : 0,
            "componentType" : 5126,
            "count" : 736,
            "max" : [
                2.108524799346924,
                1.6769356727600098,
                0.21368297934532166
            ],
            "min" : [
                -2.091651439666748,
                0.1169348955154419,
                0.10871279239654541
            ],
            "type" : "VEC3"
        },
        {
            "bufferView" : 1,
            "componentType" : 5126,
            "count" : 736,
            "type" : "VEC3"
        },
        {
            "bufferView" : 2,
            "componentType" : 5126,
            "count" : 736,
            "type" : "VEC2"
        },
        {
            "bufferView" : 3,
            "componentType" : 5126,
            "count" : 736,
            "type" : "VEC2"
        },
        {
            "bufferView" : 4,
            "componentType" : 5123,
            "count" : 1104,
            "type" : "SCALAR"
        },
        {
            "bufferView" : 5,
            "componentType" : 5126,
            "count" : 56,
            "max" : [
                -1.9016512632369995,
                1.693793773651123,
                0.09371340274810791
            ],
            "min" : [
                -2.1016509532928467,
                -0.10620605945587158,
                -0.10628661513328552
            ],
            "type" : "VEC3"
        },
        {
            "bufferView" : 6,
            "componentType" : 5126,
            "count" : 56,
            "type" : "VEC3"
        },
        {
            "bufferView" : 7,
            "componentType" : 5126,
            "count" : 56,
            "type" : "VEC2"
        },
        {
            "bufferView" : 8,
            "componentType" : 5126,
            "count" : 56,
            "type" : "VEC2"
        },
        {
            "bufferView" : 9,
            "componentType" : 5123,
            "count" : 84,
            "type" : "SCALAR"
        },
        {
            "bufferView" : 10,
            "componentType" : 5126,
            "count" : 96,
            "max" : [
                -1.8890414237976074,
                1.513793706893921,
                0.10632318258285522
            ],
            "min" : [
                -2.1142609119415283,
                0.3765189051628113,
                -0.11889639496803284
            ],
            "type" : "VEC3"
        },
        {
            "bufferView" : 11,
            "componentType" : 5126,
            "count" : 96,
            "type" : "VEC3"
        },
        {
            "bufferView" : 12,
            "componentType" : 5126,
            "count" : 96,
            "type" : "VEC2"
        },
        {
            "bufferView" : 13,
            "componentType" : 5126,
            "count" : 96,
            "type" : "VEC2"
        },
        {
            "bufferView" : 14,
            "componentType" : 5123,
            "count" : 144,
            "type" : "SCALAR"
        }
    ],
    "bufferViews" : [
        {
            "buffer" : 0,
            "byteLength" : 8832,
            "byteOffset" : 0
        },
        {
            "buffer" : 0,
            "byteLength" : 8832,
            "byteOffset" : 8832
        },
        {
            "buffer" : 0,
            "byteLength" : 5888,
            "byteOffset" : 17664
        },
        {
            "buffer" : 0,
            "byteLength" : 5888,
            "byteOffset" : 23552
        },
        {
            "buffer" : 0,
            "byteLength" : 2208,
            "byteOffset" : 29440
        },
        {
            "buffer" : 0,
            "byteLength" : 672,
            "byteOffset" : 31648
        },
        {
            "buffer" : 0,
            "byteLength" : 672,
            "byteOffset" : 32320
        },
        {
            "buffer" : 0,
            "byteLength" : 448,
            "byteOffset" : 32992
        },
        {
            "buffer" : 0,
            "byteLength" : 448,
            "byteOffset" : 33440
        },
        {
            "buffer" : 0,
            "byteLength" : 168,
            "byteOffset" : 33888
        },
        {
            "buffer" : 0,
            "byteLength" : 1152,
            "byteOffset" : 34056
        },
        {
            "buffer" : 0,
            "byteLength" : 1152,
            "byteOffset" : 35208
        },
        {
            "buffer" : 0,
            "byteLength" : 768,
            "byteOffset" : 36360
        },
        {
            "buffer" : 0,
            "byteLength" : 768,
            "byteOffset" : 37128
        },
        {
            "buffer" : 0,
            "byteLength" : 288,
            "byteOffset" : 37896
        }
    ],
    "buffers" : [
        {
            "byteLength" : 38184,
            "uri" : "data:application/octet-stream;base64,"
        }
    ]
}
