{
    "asset" : {
        "copyright" : "ukho2008",
        "generator" : "Khronos glTF Blender I/O v3.2.43",
        "version" : "2.0"
    },
    "scene" : 0,
    "scenes" : [
        {
            "name" : "Scene",
            "nodes" : [
                0
            ]
        }
    ],
    "nodes" : [
        {
            "mesh" : 0,
            "name" : "Pine2"
        }
    ],
    "materials" : [
        {
            "doubleSided" : true,
            "name" : "Bark004",
            "pbrMetallicRoughness" : {}
        },
        {
            "doubleSided" : true,
            "name" : "Leaf004",
            "pbrMetallicRoughness" : {}
        }
    ],
    "meshes" : [
        {
            "name" : "Pine002.001",
            "primitives" : [
                {
                    "attributes" : {
                        "POSITION" : 0,
                        "NORMAL" : 1,
                        "TEXCOORD_0" : 2
                    },
                    "indices" : 3,
                    "material" : 0
                },
                {
                    "attributes" : {
                        "POSITION" : 4,
                        "NORMAL" : 5,
                        "TEXCOORD_0" : 6
                    },
                    "indices" : 7,
                    "material" : 1
                }
            ]
        }
    ],
    "accessors" : [
        {
            "bufferView" : 0,
            "componentType" : 5126,
            "count" : 144,
            "max" : [
                0.6533560156822205,
                13.97964859008789,
                0.7543941140174866
            ],
            "min" : [
                -0.6532596945762634,
                -0.48564815521240234,
                -0.7543919682502747
            ],
            "type" : "VEC3"
        },
        {
            "bufferView" : 1,
            "componentType" : 5126,
            "count" : 144,
            "type" : "VEC3"
        },
        {
            "bufferView" : 2,
            "componentType" : 5126,
            "count" : 144,
            "type" : "VEC2"
        },
        {
            "bufferView" : 3,
            "componentType" : 5123,
            "count" : 216,
            "type" : "SCALAR"
        },
        {
            "bufferView" : 4,
            "componentType" : 5126,
            "count" : 150,
            "max" : [
                1.6785027980804443,
                14.725708961486816,
                1.498863935470581
            ],
            "min" : [
                -1.5321190357208252,
                9.797106742858887,
                -1.682189702987671
            ],
            "type" : "VEC3"
        },
        {
            "bufferView" : 5,
            "componentType" : 5126,
            "count" : 150,
            "type" : "VEC3"
        },
        {
            "bufferView" : 6,
            "componentType" : 5126,
            "count" : 150,
            "type" : "VEC2"
        },
        {
            "bufferView" : 7,
            "componentType" : 5123,
            "count" : 150,
            "type" : "SCALAR"
        }
    ],
    "bufferViews" : [
        {
            "buffer" : 0,
            "byteLength" : 1728,
            "byteOffset" : 0
        },
        {
            "buffer" : 0,
            "byteLength" : 1728,
            "byteOffset" : 1728
        },
        {
            "buffer" : 0,
            "byteLength" : 1152,
            "byteOffset" : 3456
        },
        {
            "buffer" : 0,
            "byteLength" : 432,
            "byteOffset" : 4608
        },
        {
            "buffer" : 0,
            "byteLength" : 1800,
            "byteOffset" : 5040
        },
        {
            "buffer" : 0,
            "byteLength" : 1800,
            "byteOffset" : 6840
        },
        {
            "buffer" : 0,
            "byteLength" : 1200,
            "byteOffset" : 8640
        },
        {
            "buffer" : 0,
            "byteLength" : 300,
            "byteOffset" : 9840
        }
    ],
    "buffers" : [
        {
            "byteLength" : 10140,
            "uri" : "data:application/octet-stream;base64,"
        }
    ]
}
