{
    "asset" : {
        "copyright" : "ukho2008",
        "generator" : "Khronos glTF Blender I/O v3.2.43",
        "version" : "2.0"
    },
    "scene" : 0,
    "scenes" : [
        {
            "name" : "Scene",
            "nodes" : [
                0,
                1,
                2,
                3,
                4,
                5
            ]
        }
    ],
    "nodes" : [
        {
            "mesh" : 0,
            "name" : "Pine1"
        },
        {
            "mesh" : 1,
            "name" : "Pine3"
        },
        {
            "mesh" : 2,
            "name" : "Tree1",
            "translation" : [
                -0.007615025155246258,
                0.007087327539920807,
                -0.00621132692322135
            ]
        },
        {
            "mesh" : 3,
            "name" : "Tree2"
        },
        {
            "mesh" : 4,
            "name" : "Tree3"
        },
        {
            "mesh" : 5,
            "name" : "Pine2"
        }
    ],
    "materials" : [
        {
            "doubleSided" : true,
            "name" : "Bark004",
            "pbrMetallicRoughness" : {}
        },
        {
            "doubleSided" : true,
            "name" : "Leaf004",
            "pbrMetallicRoughness" : {}
        },
        {
            "doubleSided" : true,
            "name" : "Bark003",
            "pbrMetallicRoughness" : {}
        },
        {
            "doubleSided" : true,
            "name" : "Leaf003",
            "pbrMetallicRoughness" : {}
        },
        {
            "doubleSided" : true,
            "name" : "Bark001",
            "pbrMetallicRoughness" : {}
        },
        {
            "doubleSided" : true,
            "name" : "Leaf001",
            "pbrMetallicRoughness" : {}
        },
        {
            "doubleSided" : true,
            "name" : "Bark002",
            "pbrMetallicRoughness" : {}
        },
        {
            "doubleSided" : true,
            "name" : "Leaf002",
            "pbrMetallicRoughness" : {}
        },
        {
            "doubleSided" : true,
            "name" : "Bark005",
            "pbrMetallicRoughness" : {}
        },
        {
            "doubleSided" : true,
            "name" : "Leaf005",
            "pbrMetallicRoughness" : {}
        }
    ],
    "meshes" : [
        {
            "name" : "Pine001",
            "primitives" : [
                {
                    "attributes" : {
                        "POSITION" : 0,
                        "NORMAL" : 1,
                        "TEXCOORD_0" : 2
                    },
                    "indices" : 3,
                    "material" : 0
                },
                {
                    "attributes" : {
                        "POSITION" : 4,
                        "NORMAL" : 5,
                        "TEXCOORD_0" : 6
                    },
                    "indices" : 7,
                    "material" : 1
                }
            ]
        },
        {
            "name" : "Pine003",
            "primitives" : [
                {
                    "attributes" : {
                        "POSITION" : 8,
                        "NORMAL" : 9,
                        "TEXCOORD_0" : 10
                    },
                    "indices" : 11,
                    "material" : 2
                },
                {
                    "attributes" : {
                        "POSITION" : 12,
                        "NORMAL" : 13,
                        "TEXCOORD_0" : 14
                    },
                    "indices" : 15,
                    "material" : 3
                }
            ]
        },
        {
            "name" : "Cone",
            "primitives" : [
                {
                    "attributes" : {
                        "POSITION" : 16,
                        "NORMAL" : 17,
                        "TEXCOORD_0" : 18
                    },
                    "indices" : 19,
                    "material" : 4
                },
                {
                    "attributes" : {
                        "POSITION" : 20,
                        "NORMAL" : 21,
                        "TEXCOORD_0" : 22
                    },
                    "indices" : 23,
                    "material" : 5
                }
            ]
        },
        {
            "name" : "Cone.002",
            "primitives" : [
                {
                    "attributes" : {
                        "POSITION" : 24,
                        "NORMAL" : 25,
                        "TEXCOORD_0" : 26
                    },
                    "indices" : 27,
                    "material" : 6
                },
                {
                    "attributes" : {
                        "POSITION" : 28,
                        "NORMAL" : 29,
                        "TEXCOORD_0" : 30
                    },
                    "indices" : 31,
                    "material" : 7
                }
            ]
        },
        {
            "name" : "Cone.001",
            "primitives" : [
                {
                    "attributes" : {
                        "POSITION" : 32,
                        "NORMAL" : 33,
                        "TEXCOORD_0" : 34
                    },
                    "indices" : 35,
                    "material" : 8
                },
                {
                    "attributes" : {
                        "POSITION" : 36,
                        "NORMAL" : 37,
                        "TEXCOORD_0" : 38
                    },
                    "indices" : 39,
                    "material" : 9
                }
            ]
        },
        {
            "name" : "Pine002.001",
            "primitives" : [
                {
                    "attributes" : {
                        "POSITION" : 40,
                        "NORMAL" : 41,
                        "TEXCOORD_0" : 42
                    },
                    "indices" : 43,
                    "material" : 0
                },
                {
                    "attributes" : {
                        "POSITION" : 44,
                        "NORMAL" : 45,
                        "TEXCOORD_0" : 46
                    },
                    "indices" : 47,
                    "material" : 1
                }
            ]
        }
    ],
    "accessors" : [
        {
            "bufferView" : 0,
            "componentType" : 5126,
            "count" : 120,
            "max" : [
                0.27753809094429016,
                3.9323084354400635,
                0.3204735815525055
            ],
            "min" : [
                -0.27753809094429016,
                -0.2617034316062927,
                -0.3204731345176697
            ],
            "type" : "VEC3"
        },
        {
            "bufferView" : 1,
            "componentType" : 5126,
            "count" : 120,
            "type" : "VEC3"
        },
        {
            "bufferView" : 2,
            "componentType" : 5126,
            "count" : 120,
            "type" : "VEC2"
        },
        {
            "bufferView" : 3,
            "componentType" : 5123,
            "count" : 180,
            "type" : "SCALAR"
        },
        {
            "bufferView" : 4,
            "componentType" : 5126,
            "count" : 150,
            "max" : [
                1.6358171701431274,
                4.2386322021484375,
                1.3915092945098877
            ],
            "min" : [
                -1.635817050933838,
                0.4712982177734375,
                -1.71999990940094
            ],
            "type" : "VEC3"
        },
        {
            "bufferView" : 5,
            "componentType" : 5126,
            "count" : 150,
            "type" : "VEC3"
        },
        {
            "bufferView" : 6,
            "componentType" : 5126,
            "count" : 150,
            "type" : "VEC2"
        },
        {
            "bufferView" : 7,
            "componentType" : 5123,
            "count" : 150,
            "type" : "SCALAR"
        },
        {
            "bufferView" : 8,
            "componentType" : 5126,
            "count" : 240,
            "max" : [
                0.3661148250102997,
                6.000336647033691,
                0.4227529466152191
            ],
            "min" : [
                -0.3661148250102997,
                -0.22897808253765106,
                -0.4227529466152191
            ],
            "type" : "VEC3"
        },
        {
            "bufferView" : 9,
            "componentType" : 5126,
            "count" : 240,
            "type" : "VEC3"
        },
        {
            "bufferView" : 10,
            "componentType" : 5126,
            "count" : 240,
            "type" : "VEC2"
        },
        {
            "bufferView" : 11,
            "componentType" : 5123,
            "count" : 360,
            "type" : "SCALAR"
        },
        {
            "bufferView" : 12,
            "componentType" : 5126,
            "count" : 150,
            "max" : [
                1.8466671705245972,
                6.458720684051514,
                1.5701757669448853
            ],
            "min" : [
                -1.8359687328338623,
                0.6752554178237915,
                -1.9322195053100586
            ],
            "type" : "VEC3"
        },
        {
            "bufferView" : 13,
            "componentType" : 5126,
            "count" : 150,
            "type" : "VEC3"
        },
        {
            "bufferView" : 14,
            "componentType" : 5126,
            "count" : 150,
            "type" : "VEC2"
        },
        {
            "bufferView" : 15,
            "componentType" : 5123,
            "count" : 150,
            "type" : "SCALAR"
        },
        {
            "bufferView" : 16,
            "componentType" : 5126,
            "count" : 270,
            "max" : [
                1.0333315134048462,
                4.372689723968506,
                1.2599579095840454
            ],
            "min" : [
                -1.8472963571548462,
                -0.33314207196235657,
                -1.1907633543014526
            ],
            "type" : "VEC3"
        },
        {
            "bufferView" : 17,
            "componentType" : 5126,
            "count" : 270,
            "type" : "VEC3"
        },
        {
            "bufferView" : 18,
            "componentType" : 5126,
            "count" : 270,
            "type" : "VEC2"
        },
        {
            "bufferView" : 19,
            "componentType" : 5123,
            "count" : 378,
            "type" : "SCALAR"
        },
        {
            "bufferView" : 20,
            "componentType" : 5126,
            "count" : 960,
            "max" : [
                2.3429787158966064,
                8.173395156860352,
                2.7544047832489014
            ],
            "min" : [
                -3.616436719894409,
                2.7478582859039307,
                -2.5912930965423584
            ],
            "type" : "VEC3"
        },
        {
            "bufferView" : 21,
            "componentType" : 5126,
            "count" : 960,
            "type" : "VEC3"
        },
        {
            "bufferView" : 22,
            "componentType" : 5126,
            "count" : 960,
            "type" : "VEC2"
        },
        {
            "bufferView" : 23,
            "componentType" : 5123,
            "count" : 960,
            "type" : "SCALAR"
        },
        {
            "bufferView" : 24,
            "componentType" : 5126,
            "count" : 270,
            "max" : [
                1.0181463956832886,
                4.30661153793335,
                1.3722609281539917
            ],
            "min" : [
                -0.6646105647087097,
                -0.2615360617637634,
                -1.110926628112793
            ],
            "type" : "VEC3"
        },
        {
            "bufferView" : 25,
            "componentType" : 5126,
            "count" : 270,
            "type" : "VEC3"
        },
        {
            "bufferView" : 26,
            "componentType" : 5126,
            "count" : 270,
            "type" : "VEC2"
        },
        {
            "bufferView" : 27,
            "componentType" : 5123,
            "count" : 378,
            "type" : "SCALAR"
        },
        {
            "bufferView" : 28,
            "componentType" : 5126,
            "count" : 960,
            "max" : [
                3.460071325302124,
                9.382661819458008,
                3.857499361038208
            ],
            "min" : [
                -2.9018495082855225,
                2.416409969329834,
                -3.127077341079712
            ],
            "type" : "VEC3"
        },
        {
            "bufferView" : 29,
            "componentType" : 5126,
            "count" : 960,
            "type" : "VEC3"
        },
        {
            "bufferView" : 30,
            "componentType" : 5126,
            "count" : 960,
            "type" : "VEC2"
        },
        {
            "bufferView" : 31,
            "componentType" : 5123,
            "count" : 960,
            "type" : "SCALAR"
        },
        {
            "bufferView" : 32,
            "componentType" : 5126,
            "count" : 270,
            "max" : [
                0.5741851329803467,
                4.768555164337158,
                0.7332891225814819
            ],
            "min" : [
                -0.5449144840240479,
                -0.32734474539756775,
                -0.6540145874023438
            ],
            "type" : "VEC3"
        },
        {
            "bufferView" : 33,
            "componentType" : 5126,
            "count" : 270,
            "type" : "VEC3"
        },
        {
            "bufferView" : 34,
            "componentType" : 5126,
            "count" : 270,
            "type" : "VEC2"
        },
        {
            "bufferView" : 35,
            "componentType" : 5123,
            "count" : 378,
            "type" : "SCALAR"
        },
        {
            "bufferView" : 36,
            "componentType" : 5126,
            "count" : 960,
            "max" : [
                2.0524649620056152,
                15.784252166748047,
                2.057121992111206
            ],
            "min" : [
                -2.1640067100524902,
                2.9549314975738525,
                -1.841977834701538
            ],
            "type" : "VEC3"
        },
        {
            "bufferView" : 37,
            "componentType" : 5126,
            "count" : 960,
            "type" : "VEC3"
        },
        {
            "bufferView" : 38,
            "componentType" : 5126,
            "count" : 960,
            "type" : "VEC2"
        },
        {
            "bufferView" : 39,
            "componentType" : 5123,
            "count" : 960,
            "type" : "SCALAR"
        },
        {
            "bufferView" : 40,
            "componentType" : 5126,
            "count" : 144,
            "max" : [
                0.6533560156822205,
                13.97964859008789,
                0.7543941140174866
            ],
            "min" : [
                -0.6532596945762634,
                -0.48564815521240234,
                -0.7543919682502747
            ],
            "type" : "VEC3"
        },
        {
            "bufferView" : 41,
            "componentType" : 5126,
            "count" : 144,
            "type" : "VEC3"
        },
        {
            "bufferView" : 42,
            "componentType" : 5126,
            "count" : 144,
            "type" : "VEC2"
        },
        {
            "bufferView" : 43,
            "componentType" : 5123,
            "count" : 216,
            "type" : "SCALAR"
        },
        {
            "bufferView" : 44,
            "componentType" : 5126,
            "count" : 150,
            "max" : [
                1.6785027980804443,
                14.725708961486816,
                1.498863935470581
            ],
            "min" : [
                -1.5321190357208252,
                9.797106742858887,
                -1.682189702987671
            ],
            "type" : "VEC3"
        },
        {
            "bufferView" : 45,
            "componentType" : 5126,
            "count" : 150,
            "type" : "VEC3"
        },
        {
            "bufferView" : 46,
            "componentType" : 5126,
            "count" : 150,
            "type" : "VEC2"
        },
        {
            "bufferView" : 47,
            "componentType" : 5123,
            "count" : 150,
            "type" : "SCALAR"
        }
    ],
    "bufferViews" : [
        {
            "buffer" : 0,
            "byteLength" : 1440,
            "byteOffset" : 0
        },
        {
            "buffer" : 0,
            "byteLength" : 1440,
            "byteOffset" : 1440
        },
        {
            "buffer" : 0,
            "byteLength" : 960,
            "byteOffset" : 2880
        },
        {
            "buffer" : 0,
            "byteLength" : 360,
            "byteOffset" : 3840
        },
        {
            "buffer" : 0,
            "byteLength" : 1800,
            "byteOffset" : 4200
        },
        {
            "buffer" : 0,
            "byteLength" : 1800,
            "byteOffset" : 6000
        },
        {
            "buffer" : 0,
            "byteLength" : 1200,
            "byteOffset" : 7800
        },
        {
            "buffer" : 0,
            "byteLength" : 300,
            "byteOffset" : 9000
        },
        {
            "buffer" : 0,
            "byteLength" : 2880,
            "byteOffset" : 9300
        },
        {
            "buffer" : 0,
            "byteLength" : 2880,
            "byteOffset" : 12180
        },
        {
            "buffer" : 0,
            "byteLength" : 1920,
            "byteOffset" : 15060
        },
        {
            "buffer" : 0,
            "byteLength" : 720,
            "byteOffset" : 16980
        },
        {
            "buffer" : 0,
            "byteLength" : 1800,
            "byteOffset" : 17700
        },
        {
            "buffer" : 0,
            "byteLength" : 1800,
            "byteOffset" : 19500
        },
        {
            "buffer" : 0,
            "byteLength" : 1200,
            "byteOffset" : 21300
        },
        {
            "buffer" : 0,
            "byteLength" : 300,
            "byteOffset" : 22500
        },
        {
            "buffer" : 0,
            "byteLength" : 3240,
            "byteOffset" : 22800
        },
        {
            "buffer" : 0,
            "byteLength" : 3240,
            "byteOffset" : 26040
        },
        {
            "buffer" : 0,
            "byteLength" : 2160,
            "byteOffset" : 29280
        },
        {
            "buffer" : 0,
            "byteLength" : 756,
            "byteOffset" : 31440
        },
        {
            "buffer" : 0,
            "byteLength" : 11520,
            "byteOffset" : 32196
        },
        {
            "buffer" : 0,
            "byteLength" : 11520,
            "byteOffset" : 43716
        },
        {
            "buffer" : 0,
            "byteLength" : 7680,
            "byteOffset" : 55236
        },
        {
            "buffer" : 0,
            "byteLength" : 1920,
            "byteOffset" : 62916
        },
        {
            "buffer" : 0,
            "byteLength" : 3240,
            "byteOffset" : 64836
        },
        {
            "buffer" : 0,
            "byteLength" : 3240,
            "byteOffset" : 68076
        },
        {
            "buffer" : 0,
            "byteLength" : 2160,
            "byteOffset" : 71316
        },
        {
            "buffer" : 0,
            "byteLength" : 756,
            "byteOffset" : 73476
        },
        {
            "buffer" : 0,
            "byteLength" : 11520,
            "byteOffset" : 74232
        },
        {
            "buffer" : 0,
            "byteLength" : 11520,
            "byteOffset" : 85752
        },
        {
            "buffer" : 0,
            "byteLength" : 7680,
            "byteOffset" : 97272
        },
        {
            "buffer" : 0,
            "byteLength" : 1920,
            "byteOffset" : 104952
        },
        {
            "buffer" : 0,
            "byteLength" : 3240,
            "byteOffset" : 106872
        },
        {
            "buffer" : 0,
            "byteLength" : 3240,
            "byteOffset" : 110112
        },
        {
            "buffer" : 0,
            "byteLength" : 2160,
            "byteOffset" : 113352
        },
        {
            "buffer" : 0,
            "byteLength" : 756,
            "byteOffset" : 115512
        },
        {
            "buffer" : 0,
            "byteLength" : 11520,
            "byteOffset" : 116268
        },
        {
            "buffer" : 0,
            "byteLength" : 11520,
            "byteOffset" : 127788
        },
        {
            "buffer" : 0,
            "byteLength" : 7680,
            "byteOffset" : 139308
        },
        {
            "buffer" : 0,
            "byteLength" : 1920,
            "byteOffset" : 146988
        },
        {
            "buffer" : 0,
            "byteLength" : 1728,
            "byteOffset" : 148908
        },
        {
            "buffer" : 0,
            "byteLength" : 1728,
            "byteOffset" : 150636
        },
        {
            "buffer" : 0,
            "byteLength" : 1152,
            "byteOffset" : 152364
        },
        {
            "buffer" : 0,
            "byteLength" : 432,
            "byteOffset" : 153516
        },
        {
            "buffer" : 0,
            "byteLength" : 1800,
            "byteOffset" : 153948
        },
        {
            "buffer" : 0,
            "byteLength" : 1800,
            "byteOffset" : 155748
        },
        {
            "buffer" : 0,
            "byteLength" : 1200,
            "byteOffset" : 157548
        },
        {
            "buffer" : 0,
            "byteLength" : 300,
            "byteOffset" : 158748
        }
    ],
    "buffers" : [
        {
            "byteLength" : 159048,
            "uri" : "data:application/octet-stream;base64,"
        }
    ]
}
