{
    "asset" : {
        "generator" : "Khronos glTF Blender I/O v1.6.16",
        "version" : "2.0"
    },
    "scene" : 0,
    "scenes" : [
        {
            "name" : "Scene",
            "nodes" : [
                0
            ]
        }
    ],
    "nodes" : [
        {
            "mesh" : 0,
            "name" : "Tree1",
            "scale" : [
                0.4081763029098511,
                0.4081763029098511,
                0.4081763029098511
            ]
        }
    ],
    "materials" : [
        {
            "alphaCutoff" : 0.8301886916160583,
            "alphaMode" : "MASK",
            "doubleSided" : true,
            "name" : "Tree1",
            "pbrMetallicRoughness" : {}
        }
    ],
    "meshes" : [
        {
            "name" : "tree1",
            "primitives" : [
                {
                    "attributes" : {
                        "POSITION" : 0,
                        "NORMAL" : 1,
                        "TEXCOORD_0" : 2
                    },
                    "indices" : 3,
                    "material" : 0
                }
            ]
        }
    ],
    "accessors" : [
        {
            "bufferView" : 0,
            "componentType" : 5126,
            "count" : 542,
            "max" : [
                3.954807758331299,
                9.096980094909668,
                4.159090995788574
            ],
            "min" : [
                -5.194485664367676,
                -0.4569377899169922,
                -4.666680812835693
            ],
            "type" : "VEC3"
        },
        {
            "bufferView" : 1,
            "componentType" : 5126,
            "count" : 542,
            "type" : "VEC3"
        },
        {
            "bufferView" : 2,
            "componentType" : 5126,
            "count" : 542,
            "type" : "VEC2"
        },
        {
            "bufferView" : 3,
            "componentType" : 5123,
            "count" : 2424,
            "type" : "SCALAR"
        }
    ],
    "bufferViews" : [
        {
            "buffer" : 0,
            "byteLength" : 6504,
            "byteOffset" : 0
        },
        {
            "buffer" : 0,
            "byteLength" : 6504,
            "byteOffset" : 6504
        },
        {
            "buffer" : 0,
            "byteLength" : 4336,
            "byteOffset" : 13008
        },
        {
            "buffer" : 0,
            "byteLength" : 4848,
            "byteOffset" : 17344
        }
    ],
    "buffers" : [
        {
            "byteLength" : 22192,
            "uri" : "data:application/octet-stream;base64,"
        }
    ]
}
