# Blender 3.2.1
# www.blender.org
mtllib stairs.mtl
o Stairs
v 138.799973 4.823093 -87.273201
v 138.799973 4.823093 -89.273201
v 138.799973 5.023093 -87.273201
v 138.799973 5.023093 -89.273201
v 141.199966 6.623093 -89.273201
v 141.199966 6.423093 -89.273201
v 141.199966 6.223093 -89.273201
v 141.199966 6.623093 -87.273201
v 141.199966 6.423093 -87.273201
v 141.199966 6.223093 -87.273201
v 140.000031 5.423093 -87.273201
v 140.000031 5.623093 -87.273201
v 140.000031 5.823093 -87.273201
v 140.000031 5.423093 -89.273201
v 140.000031 5.623093 -89.273201
v 140.000031 5.823093 -89.273201
v 139.400009 5.023093 -87.273201
v 139.400009 5.223093 -87.273201
v 139.400009 5.423093 -87.273201
v 141.499969 6.623093 -89.573204
v 139.400009 5.023093 -89.273201
v 139.400009 5.223093 -89.273201
v 139.400009 5.423093 -89.273201
v 139.700012 5.223093 -89.273201
v 139.700012 5.423093 -89.273201
v 139.700012 5.623093 -89.273201
v 139.700012 5.223093 -87.273201
v 139.700012 5.423093 -87.273201
v 139.700012 5.623093 -87.273201
v 139.100006 4.823093 -89.273201
v 139.100006 5.023093 -87.273201
v 139.100006 5.223093 -87.273201
v 139.100006 4.823093 -87.273201
v 139.100006 5.023093 -89.273201
v 139.100006 5.223093 -89.273201
v 140.600037 5.823093 -89.273201
v 140.600037 6.023093 -89.273201
v 140.600037 6.223093 -89.273201
v 140.600037 5.823093 -87.273201
v 140.600037 6.023093 -87.273201
v 140.600037 6.223093 -87.273201
v 141.499969 6.423093 -87.273201
v 141.499969 6.623093 -87.273201
v 140.300018 5.623093 -87.273201
v 140.300018 5.823093 -87.273201
v 140.300018 6.023093 -87.273201
v 140.300018 5.623093 -89.273201
v 140.300018 5.823093 -89.273201
v 140.300018 6.023093 -89.273201
v 141.499969 6.423093 -89.273201
v 141.499969 6.623093 -89.273201
v 140.900040 6.023093 -89.273201
v 140.900040 6.223093 -89.273201
v 140.900040 6.423093 -89.273201
v 140.900040 6.023093 -87.273201
v 140.900040 6.223093 -87.273201
v 140.900040 6.423093 -87.273201
v 143.499969 6.623093 -89.273201
v 143.499969 6.623093 -87.273201
v 143.499969 6.423093 -89.273201
v 143.499969 6.423093 -87.273201
v 143.499969 6.623093 -89.573204
v 143.499969 6.823093 -89.573204
v 143.499969 6.823093 -89.273201
v 141.499969 6.823093 -89.273201
v 141.499969 6.823093 -89.573204
v 143.499969 6.823093 -89.873207
v 141.499969 6.823093 -89.873207
v 143.499969 7.023093 -89.573204
v 141.499969 7.023093 -89.573204
v 143.499969 7.023093 -89.873207
v 141.499969 7.023093 -89.873207
v 143.499969 7.023093 -90.173210
v 141.499969 7.023093 -90.173210
v 143.499969 7.223093 -89.873207
v 141.499969 7.223093 -89.873207
v 143.499969 7.223093 -90.173210
v 141.499969 7.223093 -90.173210
v 143.499969 7.223093 -90.473213
v 141.499969 7.223093 -90.473213
v 143.499969 7.423093 -90.173210
v 141.499969 7.423093 -90.173210
v 143.499969 7.423093 -90.473213
v 141.499969 7.423093 -90.473213
v 143.499969 7.423093 -90.773216
v 141.499969 7.423093 -90.773216
v 143.499969 7.623093 -90.473213
v 141.499969 7.623093 -90.473213
v 143.499969 7.623093 -90.773216
v 141.499969 7.623093 -90.773216
v 143.499969 7.623093 -91.073219
v 141.499969 7.623093 -91.073219
v 143.499969 7.823093 -90.773216
v 141.499969 7.823093 -90.773216
v 143.499969 7.823093 -91.073219
v 141.499969 7.823093 -91.073219
v 143.499969 7.823093 -91.373222
v 141.499969 7.823093 -91.373222
v 143.499969 8.023093 -91.073219
v 141.499969 8.023093 -91.073219
v 143.499969 8.023093 -91.373222
v 141.499969 8.023093 -91.373222
v 143.499969 8.023093 -91.673225
v 141.499969 8.023093 -91.673225
v 143.499969 8.223093 -91.373222
v 141.499969 8.223093 -91.373222
v 143.499969 8.223093 -91.673225
v 141.499969 8.223093 -91.673225
v 143.499969 8.223093 -91.973228
v 141.499969 8.223093 -91.973228
v 143.499969 8.423094 -91.673225
v 141.499969 8.423094 -91.673225
v 143.499969 8.423094 -91.973228
v 141.499969 8.423094 -91.973228
v 143.499969 8.423094 -92.273232
v 141.499969 8.423094 -92.273232
v 143.499969 8.623094 -91.973228
v 141.499969 8.623094 -91.973228
v 143.499969 8.623094 -92.273232
v 141.499969 8.623094 -92.273232
v 143.499969 8.623094 -92.573235
v 141.499969 8.623094 -92.573235
v 143.499969 8.823093 -92.273232
v 141.499969 8.823093 -92.273232
v 143.499969 8.823093 -92.573235
v 141.499969 8.823093 -92.573235
v 143.499969 8.823093 -92.873238
v 141.499969 8.823093 -92.873238
v 143.499969 9.023093 -92.573235
v 141.499969 9.023093 -92.573235
v 143.499969 9.023093 -92.873238
v 141.499969 9.023093 -92.873238
v 143.499969 9.023093 -93.173241
v 141.499969 9.023093 -93.173241
v 143.499969 9.223093 -92.873238
v 141.499969 9.223093 -92.873238
v 143.499969 9.223093 -93.173241
v 141.499969 9.223093 -93.173241
v 143.499969 9.223093 -93.473244
v 141.499969 9.223093 -93.473244
v 143.499969 9.423094 -93.173241
v 141.499969 9.423094 -93.173241
v 143.499969 9.423094 -93.473244
v 141.499969 9.423094 -93.473244
v 143.499969 9.423094 -93.773247
v 141.499969 9.423094 -93.773247
v 143.499969 9.623094 -93.473244
v 141.499969 9.623094 -93.473244
v 143.499969 9.623094 -93.773247
v 141.499969 9.623094 -93.773247
v 143.499969 9.623094 -94.073250
v 141.499969 9.623094 -94.073250
v 143.499969 9.823093 -93.773247
v 141.499969 9.823093 -93.773247
v 143.499969 9.823093 -94.073250
v 141.499969 9.823093 -94.073250
v 143.499969 9.823093 -94.373253
v 141.499969 9.823093 -94.373253
v 143.499969 10.023093 -94.073250
v 141.499969 10.023093 -94.073250
v 143.499969 10.023093 -94.373253
v 141.499969 10.023093 -94.373253
v 143.499969 9.823093 -94.673256
v 141.499969 9.823093 -94.673256
v 143.499969 10.023093 -94.673256
v 141.499969 10.023093 -94.673256
vn -0.0000 -0.0000 1.0000
vn -0.0000 -0.0000 -1.0000
vn -1.0000 -0.0000 -0.0000
vn 0.5547 -0.8321 -0.0000
vn -0.0000 -0.8321 -0.5547
vn -0.0000 1.0000 -0.0000
vn -0.0000 -1.0000 -0.0000
vn 1.0000 -0.0000 -0.0000
vn 0.5548 -0.8320 -0.0000
vn 0.5547 -0.8320 -0.0000
vt 0.970178 0.236914
vt 0.656847 0.236914
vt 0.236913 0.209968
vt 0.460353 0.236914
vt 0.923580 0.836662
vt 0.236913 0.013473
vt 0.953829 0.247812
vt 0.656847 0.256563
vt 0.939929 0.847562
vt 0.460353 0.256563
vt 0.939930 0.643501
vt 0.433407 0.266388
vt 0.433407 0.286037
vt 0.923581 0.632601
vt 0.907232 0.621700
vt 0.514352 0.013473
vt 0.832864 0.037997
vt 0.236914 0.266388
vt 0.236913 0.286038
vt 0.816514 0.048897
vt 0.514352 0.209968
vt 0.800165 0.059795
vt 0.372664 0.209968
vt 0.800165 0.201482
vt 0.986527 0.367711
vt 0.970178 0.378611
vt 0.656847 0.433413
vt 0.816514 0.190583
vt 0.832863 0.179683
vt 0.236914 0.462875
vt 0.656847 0.453063
vt 0.372662 0.013473
vt 0.907235 0.480009
vt 0.907232 0.967464
vt 0.923580 0.978363
vt 0.460354 0.433413
vt 0.923583 0.490910
vt 0.939930 0.501810
vt 0.433407 0.462873
vt 0.460353 0.453063
vt 0.301814 0.209968
vt 0.986526 0.296863
vt 0.656847 0.335164
vt 0.970176 0.307762
vt 0.953827 0.318662
vt 0.656847 0.354814
vt 0.209967 0.048898
vt 0.907229 0.692548
vt 0.907229 0.896615
vt 0.301814 0.013473
vt 0.460353 0.335164
vt 0.923579 0.907515
vt 0.939927 0.918413
vt 0.460354 0.354814
vt 0.337238 0.013474
vt 0.907230 0.932039
vt 0.460354 0.384288
vt 0.923579 0.942936
vt 0.939929 0.953837
vt 0.460354 0.403937
vt 0.337237 0.209966
vt 0.986527 0.332287
vt 0.656847 0.384288
vt 0.970177 0.343186
vt 0.953828 0.354086
vt 0.656847 0.403937
vt 0.907229 0.861192
vt 0.266391 0.013474
vt 0.656847 0.286040
vt 0.970177 0.272339
vt 0.953828 0.283238
vt 0.656847 0.305690
vt 0.266390 0.209966
vt 0.986527 0.261442
vt 0.923578 0.872091
vt 0.460353 0.286041
vt 0.939927 0.882991
vt 0.460354 0.305690
vt 0.443510 0.013474
vt 0.907230 0.550859
vt 0.433407 0.384278
vt 0.923578 0.561758
vt 0.433407 0.364627
vt 0.939926 0.572658
vt 0.443510 0.209966
vt 0.800162 0.130635
vt 0.236914 0.384278
vt 0.816511 0.119737
vt 0.832860 0.108835
vt 0.236913 0.364629
vt 0.800165 0.024371
vt 0.683793 0.433407
vt 0.939104 0.013473
vt 0.549775 0.209966
vt 0.816514 0.013473
vt 0.433407 0.489821
vt 0.236914 0.236914
vt 0.919454 0.013473
vt 0.408086 0.209968
vt 0.800165 0.166061
vt 0.236914 0.433403
vt 0.816514 0.155162
vt 0.236913 0.413752
vt 0.832864 0.144261
vt 0.408086 0.013474
vt 0.907232 0.515431
vt 0.433406 0.433403
vt 0.923581 0.526333
vt 0.939930 0.537233
vt 0.433407 0.413753
vt 0.209967 0.013474
vt 0.683793 0.236914
vt 0.549775 0.013473
vt 0.907230 0.657125
vt 0.236913 0.489821
vt 0.433407 0.236914
vt 0.460353 0.480009
vt 0.923581 0.668025
vt 0.478934 0.013474
vt 0.907229 0.586284
vt 0.433407 0.335154
vt 0.923577 0.597183
vt 0.939926 0.608084
vt 0.433407 0.315504
vt 0.478934 0.209966
vt 0.800162 0.095211
vt 0.236914 0.335152
vt 0.816510 0.084311
vt 0.236914 0.315504
vt 0.832860 0.073413
vt 0.236913 0.686316
vt 0.236911 0.799156
vt 0.595994 0.733997
vt 0.656845 0.480009
vt 0.433407 0.686316
vt 0.433405 0.799156
vt 0.919454 0.209965
vt 0.013474 0.013473
vt 0.236911 0.818805
vt 0.880286 0.236914
vt 0.612343 0.723099
vt 0.433405 0.818805
vt 0.880286 0.433407
vt 0.939104 0.209965
vt 0.612343 0.758521
vt 0.013473 0.048896
vt 0.656845 0.529132
vt 0.595994 0.769421
vt 0.579644 0.744897
vt 0.656845 0.499658
vt 0.939927 0.678924
vt 0.460353 0.499658
vt 0.460353 0.529132
vt 0.923578 0.703448
vt 0.612342 0.793945
vt 0.013473 0.084320
vt 0.209967 0.084321
vt 0.907230 0.727971
vt 0.656845 0.548782
vt 0.579644 0.780320
vt 0.460353 0.548782
vt 0.939927 0.714347
vt 0.595993 0.804844
vt 0.656845 0.578256
vt 0.460353 0.578256
vt 0.923578 0.738872
vt 0.612343 0.829368
vt 0.013473 0.119745
vt 0.209967 0.119746
vt 0.907229 0.763395
vt 0.579644 0.815744
vt 0.656845 0.597905
vt 0.460353 0.597906
vt 0.939926 0.749771
vt 0.656845 0.627380
vt 0.595993 0.840268
vt 0.460353 0.627380
vt 0.923580 0.774293
vt 0.612343 0.864792
vt 0.013473 0.155166
vt 0.552698 0.723099
vt 0.209967 0.155168
vt 0.907229 0.798817
vt 0.859810 0.013473
vt 0.656845 0.647029
vt 0.579644 0.851168
vt 0.460353 0.647029
vt 0.939926 0.785193
vt 0.595995 0.875692
vt 0.536349 0.733997
vt 0.656845 0.676503
vt 0.923578 0.809716
vt 0.460353 0.676504
vt 0.876159 0.024373
vt 0.552698 0.758523
vt 0.013473 0.190591
vt 0.209967 0.190591
vt 0.859809 0.048897
vt 0.576721 0.013473
vt 0.520000 0.744897
vt 0.656845 0.696153
vt 0.576721 0.209965
vt 0.460353 0.696153
vt 0.892508 0.035271
vt 0.536348 0.769421
vt 0.606196 0.013473
vt 0.606195 0.209965
vt 0.876159 0.059795
vt 0.552697 0.793945
vt 0.013473 0.226014
vt 0.209967 0.226015
vt 0.859810 0.084320
vt 0.519999 0.780321
vt 0.625845 0.013473
vt 0.892508 0.070695
vt 0.625845 0.209965
vt 0.655319 0.013473
vt 0.536349 0.804845
vt 0.655319 0.209965
vt 0.876159 0.095219
vt 0.552698 0.829369
vt 0.013473 0.261439
vt 0.209967 0.261439
vt 0.859810 0.119744
vt 0.674969 0.013473
vt 0.519999 0.815744
vt 0.674969 0.209965
vt 0.892508 0.106119
vt 0.536349 0.840269
vt 0.704443 0.013473
vt 0.704443 0.209965
vt 0.876159 0.130643
vt 0.552698 0.864792
vt 0.493053 0.723099
vt 0.013473 0.296862
vt 0.209967 0.296862
vt 0.859810 0.155168
vt 0.861992 0.856045
vt 0.519999 0.851169
vt 0.724092 0.013473
vt 0.724092 0.209965
vt 0.892508 0.141543
vt 0.536350 0.875693
vt 0.476703 0.733997
vt 0.753567 0.013473
vt 0.876159 0.166066
vt 0.753567 0.209965
vt 0.845643 0.845145
vt 0.493053 0.758523
vt 0.013473 0.332285
vt 0.209967 0.332285
vt 0.861992 0.820621
vt 0.013473 0.868590
vt 0.460354 0.744897
vt 0.773216 0.013473
vt 0.209965 0.868590
vt 0.773216 0.209965
vt 0.829293 0.834245
vt 0.476703 0.769421
vt 0.013473 0.839116
vt 0.209965 0.839116
vt 0.845643 0.809722
vt 0.493052 0.793946
vt 0.013473 0.367710
vt 0.209967 0.367709
vt 0.861992 0.785197
vt 0.460354 0.780321
vt 0.013473 0.819466
vt 0.829293 0.798821
vt 0.209965 0.819466
vt 0.013473 0.789992
vt 0.476703 0.804845
vt 0.209965 0.789992
vt 0.845643 0.774297
vt 0.493052 0.829369
vt 0.013473 0.403133
vt 0.209967 0.403133
vt 0.861992 0.749773
vt 0.013473 0.770342
vt 0.460353 0.815745
vt 0.209965 0.770343
vt 0.829293 0.763398
vt 0.476703 0.840269
vt 0.013473 0.740868
vt 0.209965 0.740868
vt 0.845643 0.738873
vt 0.493053 0.864792
vt 0.729597 0.703449
vt 0.013473 0.438557
vt 0.209967 0.438556
vt 0.861993 0.714350
vt 0.802347 0.915297
vt 0.460354 0.851169
vt 0.013473 0.721219
vt 0.209965 0.721219
vt 0.829294 0.727974
vt 0.476703 0.875692
vt 0.712420 0.712992
vt 0.013473 0.691745
vt 0.845643 0.703449
vt 0.209965 0.691745
vt 0.785170 0.905753
vt 0.013473 0.473980
vt 0.726733 0.738757
vt 0.209967 0.473980
vt 0.799484 0.879988
vt 0.695243 0.722534
vt 0.683791 0.676503
vt 0.013473 0.672095
vt 0.880283 0.676504
vt 0.767994 0.896211
vt 0.209965 0.672095
vt 0.709556 0.748298
vt 0.683791 0.647029
vt 0.880283 0.647029
vt 0.782308 0.870446
vt 0.723870 0.774063
vt 0.013473 0.509404
vt 0.209967 0.509404
vt 0.796622 0.844681
vt 0.692379 0.757841
vt 0.683791 0.627380
vt 0.880283 0.627380
vt 0.765131 0.860903
vt 0.683791 0.597905
vt 0.706693 0.783606
vt 0.880283 0.597906
vt 0.779445 0.835138
vt 0.721007 0.809371
vt 0.013474 0.544828
vt 0.209967 0.544827
vt 0.793759 0.809372
vt 0.683791 0.578256
vt 0.689516 0.793148
vt 0.880283 0.578256
vt 0.762268 0.825595
vt 0.703830 0.818913
vt 0.683791 0.548782
vt 0.880283 0.548782
vt 0.776582 0.799830
vt 0.718145 0.844680
vt 0.013474 0.580251
vt 0.209967 0.580250
vt 0.790896 0.774065
vt 0.686654 0.828456
vt 0.683791 0.529132
vt 0.880283 0.529132
vt 0.759405 0.790287
vt 0.700967 0.854222
vt 0.683791 0.499658
vt 0.880283 0.499658
vt 0.773719 0.764521
vt 0.715282 0.879987
vt 0.013474 0.615676
vt 0.209967 0.615675
vt 0.788033 0.738758
vt 0.683791 0.863764
vt 0.236911 0.772210
vt 0.683791 0.480009
vt 0.433407 0.772210
vt 0.756543 0.754979
vt 0.880283 0.480009
vt 0.236911 0.742736
vt 0.698106 0.889531
vt 0.433407 0.742736
vt 0.770857 0.729215
vt 0.907232 0.433409
vt 0.013474 0.645149
vt 0.729597 0.905753
vt 0.907232 0.236914
vt 0.802347 0.712991
vt 0.209967 0.645149
vt 0.236911 0.713262
vt 0.926881 0.433410
vt 0.712420 0.915295
vt 0.433407 0.713262
vt 0.926881 0.236915
vt 0.785171 0.703449
s 0
usemtl Stairs
f 33/74/1 31/70/1 3/7/1 1/1/1
f 8/17/1 9/20/1 42/91/1 43/95/1
f 6/14/2 5/11/2 51/118/2 50/114/2
f 52/120/2 53/122/2 7/15/2
f 53/122/2 54/123/2 6/14/2 7/15/2
f 1/2/3 3/8/3 4/10/3 2/4/3
f 25/58/2 26/59/2 15/35/2 14/34/2
f 44/100/1 45/102/1 13/29/1 12/28/1
f 39/85/4 44/99/4 47/105/4 36/79/4
f 30/67/2 34/75/2 21/49/2
f 34/75/2 35/77/2 22/52/2 21/49/2
f 27/62/1 28/64/1 19/45/1 18/44/1
f 11/25/1 12/26/1 29/65/1 28/64/1
f 22/52/2 23/53/2 25/58/2 24/56/2
f 6/13/3 9/19/3 8/18/3 5/12/3
f 2/5/2 4/9/2 34/75/2 30/67/2
f 20/47/5 62/146/5 60/138/5 50/111/5
f 31/69/6 34/76/6 4/10/6 3/8/6
f 17/42/1 18/44/1 32/71/1 31/70/1
f 9/19/6 6/13/6 54/124/6 57/129/6
f 51/115/6 43/96/6 59/135/6 58/131/6
f 55/126/1 56/128/1 41/89/1 40/88/1
f 9/20/1 10/22/1 42/91/1
f 5/12/6 8/18/6 43/97/6 51/116/6
f 57/129/3 54/124/3 53/121/3 56/127/3
f 53/121/6 38/83/6 41/90/6 56/127/6
f 48/108/2 49/109/2 37/82/2 36/80/2
f 48/107/3 45/101/3 46/103/3 49/110/3
f 15/37/2 16/38/2 48/108/2 47/106/2
f 38/83/3 37/81/3 40/87/3 41/90/3
f 40/87/6 37/81/6 49/110/6 46/103/6
f 45/101/6 48/107/6 16/39/6 13/30/6
f 13/31/3 16/40/3 15/36/3 12/27/3
f 39/86/1 40/88/1 46/104/1 45/102/1
f 12/27/6 15/36/6 26/60/6 29/66/6
f 29/66/3 26/60/3 25/57/3 28/63/3
f 28/63/6 25/57/6 23/54/6 19/46/6
f 10/22/1 9/20/1 57/130/1 56/128/1
f 19/46/3 23/54/3 22/51/3 18/43/3
f 22/51/6 35/78/6 32/72/6 18/43/6
f 35/78/3 34/76/3 31/69/3 32/72/3
f 37/82/2 38/84/2 53/122/2 52/120/2
f 2/6/7 30/68/7 33/73/7 1/3/7
f 60/139/8 58/132/8 59/136/8 61/142/8
f 24/55/4 27/61/4 17/41/4 21/50/4
f 61/143/7 42/92/7 50/112/7 60/140/7
f 14/32/4 11/23/4 27/61/4 24/55/4
f 10/21/9 55/125/9 52/119/9 7/16/9
f 43/98/1 42/93/1 61/144/1 59/137/1
f 44/99/10 11/23/10 14/32/10 47/105/10
f 58/133/8 60/141/8 62/145/8
f 85/196/5 79/180/5 80/182/5 86/197/5
f 55/125/4 39/85/4 36/79/4 52/119/4
f 24/56/2 21/49/2 22/52/2
f 47/106/2 14/33/2 15/37/2
f 52/120/2 36/80/2 37/82/2
f 50/114/2 7/15/2 6/14/2
f 42/94/4 10/21/4 7/16/4 50/113/4
f 36/80/2 47/106/2 48/108/2
f 30/68/4 21/50/4 17/41/4 33/73/4
f 14/34/2 24/56/2 25/58/2
f 11/24/1 44/100/1 12/28/1
f 55/126/1 10/22/1 56/128/1
f 39/86/1 55/126/1 40/88/1
f 33/74/1 17/42/1 31/70/1
f 17/42/1 27/62/1 18/44/1
f 44/100/1 39/86/1 45/102/1
f 27/62/1 11/25/1 28/64/1
f 65/152/6 64/150/6 63/147/6 66/153/6
f 20/48/3 51/118/3 65/151/3 66/154/3
f 58/133/8 62/145/8 63/148/8 64/149/8
f 51/117/1 58/134/1 64/150/1 65/152/1
f 66/153/1 63/147/1 69/159/1 70/161/1
f 63/148/8 62/145/8 67/155/8
f 70/161/6 69/159/6 71/164/6 72/165/6
f 63/148/8 67/155/8 71/163/8 69/160/8
f 68/158/3 66/154/3 70/162/3 72/166/3
f 71/163/8 67/155/8 73/167/8
f 71/163/8 73/167/8 77/176/8 75/171/8
f 76/173/6 75/172/6 77/175/6 78/177/6
f 78/177/1 77/175/1 81/185/1 82/187/1
f 72/165/1 71/164/1 75/172/1 76/173/1
f 74/170/3 72/166/3 76/174/3 78/178/3
f 77/176/8 73/167/8 79/179/8
f 82/187/6 81/185/6 83/191/6 84/193/6
f 77/176/8 79/179/8 83/189/8 81/186/8
f 80/183/3 78/178/3 82/188/3 84/192/3
f 80/182/5 79/180/5 73/168/5 74/169/5
f 83/190/8 79/181/8 85/195/8
f 88/202/6 87/199/6 89/206/6 90/207/6
f 83/190/8 85/195/8 89/205/8 87/200/8
f 84/193/1 83/191/1 87/201/1 88/203/1
f 86/198/3 84/194/3 88/204/3 90/208/3
f 104/236/5 103/235/5 97/222/5 98/223/5
f 89/205/8 85/195/8 91/209/8
f 89/205/8 91/209/8 95/218/8 93/213/8
f 94/216/6 93/214/6 95/217/6 96/219/6
f 96/219/1 95/217/1 99/225/1 100/227/1
f 92/212/3 90/208/3 94/215/3 96/220/3
f 90/207/1 89/206/1 93/214/1 94/216/1
f 95/218/8 91/209/8 97/221/8
f 100/227/6 99/225/6 101/230/6 102/231/6
f 95/218/8 97/221/8 101/229/8 99/226/8
f 98/224/3 96/220/3 100/228/3 102/232/3
f 101/229/8 103/233/8 107/243/8 105/239/8
f 101/229/8 97/221/8 103/233/8
f 106/241/6 105/240/6 107/245/6 108/247/6
f 102/231/1 101/230/1 105/240/1 106/241/1
f 104/237/3 102/232/3 106/242/3 108/246/3
f 140/319/5 139/318/5 133/303/5 134/305/5
f 107/244/8 103/234/8 109/249/8
f 112/256/6 111/253/6 113/260/6 114/261/6
f 107/244/8 109/249/8 113/259/8 111/254/8
f 108/247/1 107/245/1 111/255/1 112/257/1
f 110/252/3 108/248/3 112/258/3 114/262/3
f 113/259/8 109/249/8 115/263/8
f 113/259/8 115/263/8 119/272/8 117/267/8
f 118/270/6 117/268/6 119/271/6 120/273/6
f 120/273/1 119/271/1 123/279/1 124/281/1
f 116/266/3 114/262/3 118/269/3 120/274/3
f 114/261/1 113/260/1 117/268/1 118/270/1
f 119/272/8 115/263/8 121/275/8
f 124/281/6 123/279/6 125/284/6 126/285/6
f 119/272/8 121/275/8 125/283/8 123/280/8
f 122/278/3 120/274/3 124/282/3 126/286/3
f 125/283/8 121/275/8 127/287/8
f 130/295/6 129/294/6 131/299/6 132/301/6
f 125/283/8 127/287/8 131/297/8 129/293/8
f 126/285/1 125/284/1 129/294/1 130/295/1
f 128/291/3 126/286/3 130/296/3 132/300/3
f 133/303/5 127/289/5 128/290/5 134/305/5
f 131/298/8 127/288/8 133/304/8
f 131/298/8 133/304/8 137/313/8 135/307/8
f 136/310/6 135/308/6 137/314/6 138/315/6
f 92/211/5 91/210/5 85/196/5 86/197/5
f 134/306/3 132/302/3 136/311/3 138/316/3
f 132/301/1 131/299/1 135/309/1 136/312/1
f 137/313/8 133/304/8 139/317/8
f 137/313/8 139/317/8 143/326/8 141/321/8
f 142/323/6 141/322/6 143/325/6 144/327/6
f 144/327/1 143/325/1 147/333/1 148/335/1
f 138/315/1 137/314/1 141/322/1 142/323/1
f 140/320/3 138/316/3 142/324/3 144/328/3
f 97/222/5 91/210/5 92/211/5 98/223/5
f 143/326/8 139/317/8 145/329/8
f 148/335/6 147/333/6 149/338/6 150/339/6
f 143/326/8 145/329/8 149/337/8 147/334/8
f 146/332/3 144/328/3 148/336/3 150/340/3
f 20/48/3 50/114/3 51/118/3
f 149/337/8 145/329/8 151/341/8
f 116/265/5 115/264/5 109/250/5 110/251/5
f 154/347/6 153/346/6 155/350/6 156/351/6
f 149/337/8 151/341/8 155/349/8 153/345/8
f 150/339/1 149/338/1 153/346/1 154/347/1
f 152/344/3 150/340/3 154/348/3 156/352/3
f 155/349/8 151/341/8 157/353/8
f 155/349/8 157/353/8 161/364/8 159/357/8
f 160/360/6 159/358/6 161/363/6 162/365/6
f 162/365/6 161/363/6 165/373/6 166/376/6
f 158/356/3 156/352/3 160/361/3 162/366/3
f 156/351/1 155/350/1 159/359/1 160/362/1
f 163/367/2 164/370/2 166/377/2 165/374/2
f 158/356/3 162/366/3 166/378/3 164/371/3
f 157/354/7 158/355/7 164/372/7 163/368/7
f 161/364/8 157/353/8 163/369/8 165/375/8
f 109/250/5 103/235/5 104/236/5 110/251/5
f 73/168/5 67/156/5 68/157/5 74/169/5
f 121/276/5 115/264/5 116/265/5 122/277/5
f 157/354/5 151/342/5 152/343/5 158/355/5
f 151/342/5 145/330/5 146/331/5 152/343/5
f 128/290/5 127/289/5 121/276/5 122/277/5
f 20/47/5 68/157/5 67/156/5 62/146/5
f 145/330/5 139/318/5 140/319/5 146/331/5
f 158/356/3 152/344/3 156/352/3
f 104/237/3 98/224/3 102/232/3
f 110/252/3 104/238/3 108/248/3
f 68/158/3 20/48/3 66/154/3
f 116/266/3 110/252/3 114/262/3
f 122/278/3 116/266/3 120/274/3
f 128/291/3 122/278/3 126/286/3
f 74/170/3 68/158/3 72/166/3
f 134/306/3 128/292/3 132/302/3
f 80/183/3 74/170/3 78/178/3
f 140/320/3 134/306/3 138/316/3
f 86/198/3 80/184/3 84/194/3
f 146/332/3 140/320/3 144/328/3
f 92/212/3 86/198/3 90/208/3
f 152/344/3 146/332/3 150/340/3
f 98/224/3 92/212/3 96/220/3
