{
    "asset" : {
        "copyright" : "ukho2008",
        "generator" : "Khronos glTF Blender I/O v3.2.43",
        "version" : "2.0"
    },
    "scene" : 0,
    "scenes" : [
        {
            "name" : "Scene",
            "nodes" : [
                0,
                1,
                2
            ]
        }
    ],
    "nodes" : [
        {
            "mesh" : 0,
            "name" : "Terrain"
        },
        {
            "mesh" : 1,
            "name" : "WaterTube"
        },
        {
            "mesh" : 2,
            "name" : "Bridge_Base"
        }
    ],
    "materials" : [
        {
            "doubleSided" : true,
            "name" : "Grass",
            "pbrMetallicRoughness" : {}
        },
        {
            "doubleSided" : true,
            "name" : "Clay",
            "pbrMetallicRoughness" : {}
        },
        {
            "doubleSided" : true,
            "name" : "Gravel",
            "pbrMetallicRoughness" : {}
        },
        {
            "doubleSided" : true,
            "name" : "Asphalt",
            "pbrMetallicRoughness" : {}
        },
        {
            "doubleSided" : true,
            "name" : "WaterSand",
            "pbrMetallicRoughness" : {}
        },
        {
            "doubleSided" : true,
            "name" : "Crete",
            "pbrMetallicRoughness" : {}
        }
    ],
    "meshes" : [
        {
            "name" : "terrain",
            "primitives" : [
                {
                    "attributes" : {
                        "POSITION" : 0,
                        "NORMAL" : 1,
                        "TEXCOORD_0" : 2
                    },
                    "indices" : 3,
                    "material" : 0
                },
                {
                    "attributes" : {
                        "POSITION" : 4,
                        "NORMAL" : 5,
                        "TEXCOORD_0" : 6
                    },
                    "indices" : 7,
                    "material" : 1
                },
                {
                    "attributes" : {
                        "POSITION" : 8,
                        "NORMAL" : 9,
                        "TEXCOORD_0" : 10
                    },
                    "indices" : 11,
                    "material" : 2
                },
                {
                    "attributes" : {
                        "POSITION" : 12,
                        "NORMAL" : 13,
                        "TEXCOORD_0" : 14
                    },
                    "indices" : 15,
                    "material" : 3
                },
                {
                    "attributes" : {
                        "POSITION" : 16,
                        "NORMAL" : 17,
                        "TEXCOORD_0" : 18
                    },
                    "indices" : 19,
                    "material" : 4
                },
                {
                    "attributes" : {
                        "POSITION" : 20,
                        "NORMAL" : 21,
                        "TEXCOORD_0" : 22
                    },
                    "indices" : 23,
                    "material" : 5
                }
            ]
        },
        {
            "name" : "Cylinder",
            "primitives" : [
                {
                    "attributes" : {
                        "POSITION" : 24,
                        "NORMAL" : 25,
                        "TEXCOORD_0" : 26
                    },
                    "indices" : 27,
                    "material" : 5
                }
            ]
        },
        {
            "name" : "base",
            "primitives" : [
                {
                    "attributes" : {
                        "POSITION" : 28,
                        "NORMAL" : 29,
                        "TEXCOORD_0" : 30
                    },
                    "indices" : 31,
                    "material" : 5
                }
            ]
        }
    ],
    "accessors" : [
        {
            "bufferView" : 0,
            "componentType" : 5126,
            "count" : 14691,
            "max" : [
                149.99990844726562,
                10.402097702026367,
                150.1558837890625
            ],
            "min" : [
                -150.20245361328125,
                -0.7334377765655518,
                -150.00375366210938
            ],
            "type" : "VEC3"
        },
        {
            "bufferView" : 1,
            "componentType" : 5126,
            "count" : 14691,
            "type" : "VEC3"
        },
        {
            "bufferView" : 2,
            "componentType" : 5126,
            "count" : 14691,
            "type" : "VEC2"
        },
        {
            "bufferView" : 3,
            "componentType" : 5123,
            "count" : 78333,
            "type" : "SCALAR"
        },
        {
            "bufferView" : 4,
            "componentType" : 5126,
            "count" : 4190,
            "max" : [
                148.19149780273438,
                10.094123840332031,
                150.1798095703125
            ],
            "min" : [
                -150.07864379882812,
                -0.5167649388313293,
                -150.00375366210938
            ],
            "type" : "VEC3"
        },
        {
            "bufferView" : 5,
            "componentType" : 5126,
            "count" : 4190,
            "type" : "VEC3"
        },
        {
            "bufferView" : 6,
            "componentType" : 5126,
            "count" : 4190,
            "type" : "VEC2"
        },
        {
            "bufferView" : 7,
            "componentType" : 5123,
            "count" : 14337,
            "type" : "SCALAR"
        },
        {
            "bufferView" : 8,
            "componentType" : 5126,
            "count" : 1246,
            "max" : [
                145.52029418945312,
                5.592639923095703,
                9.286669731140137
            ],
            "min" : [
                -150.00003051757812,
                -0.7334377765655518,
                -8.197541236877441
            ],
            "type" : "VEC3"
        },
        {
            "bufferView" : 9,
            "componentType" : 5126,
            "count" : 1246,
            "type" : "VEC3"
        },
        {
            "bufferView" : 10,
            "componentType" : 5126,
            "count" : 1246,
            "type" : "VEC2"
        },
        {
            "bufferView" : 11,
            "componentType" : 5123,
            "count" : 4227,
            "type" : "SCALAR"
        },
        {
            "bufferView" : 12,
            "componentType" : 5126,
            "count" : 614,
            "max" : [
                13.438652038574219,
                4.110672473907471,
                150
            ],
            "min" : [
                -2.5288543701171875,
                -0.5383858680725098,
                -150.00375366210938
            ],
            "type" : "VEC3"
        },
        {
            "bufferView" : 13,
            "componentType" : 5126,
            "count" : 614,
            "type" : "VEC3"
        },
        {
            "bufferView" : 14,
            "componentType" : 5126,
            "count" : 614,
            "type" : "VEC2"
        },
        {
            "bufferView" : 15,
            "componentType" : 5123,
            "count" : 2928,
            "type" : "SCALAR"
        },
        {
            "bufferView" : 16,
            "componentType" : 5126,
            "count" : 2470,
            "max" : [
                140.04635620117188,
                9.851820945739746,
                150
            ],
            "min" : [
                4.338294982910156,
                -1.999997854232788,
                -142.07351684570312
            ],
            "type" : "VEC3"
        },
        {
            "bufferView" : 17,
            "componentType" : 5126,
            "count" : 2470,
            "type" : "VEC3"
        },
        {
            "bufferView" : 18,
            "componentType" : 5126,
            "count" : 2470,
            "type" : "VEC2"
        },
        {
            "bufferView" : 19,
            "componentType" : 5123,
            "count" : 8106,
            "type" : "SCALAR"
        },
        {
            "bufferView" : 20,
            "componentType" : 5126,
            "count" : 244,
            "max" : [
                145.52029418945312,
                8.854310989379883,
                76.38272857666016
            ],
            "min" : [
                -0.2091960906982422,
                0.002776503562927246,
                -3.256708860397339
            ],
            "type" : "VEC3"
        },
        {
            "bufferView" : 21,
            "componentType" : 5126,
            "count" : 244,
            "type" : "VEC3"
        },
        {
            "bufferView" : 22,
            "componentType" : 5126,
            "count" : 244,
            "type" : "VEC2"
        },
        {
            "bufferView" : 23,
            "componentType" : 5123,
            "count" : 804,
            "type" : "SCALAR"
        },
        {
            "bufferView" : 24,
            "componentType" : 5126,
            "count" : 607,
            "max" : [
                99.06856536865234,
                2.331291675567627,
                9.070463180541992
            ],
            "min" : [
                91.95823669433594,
                -2.4163620471954346,
                -9.481546401977539
            ],
            "type" : "VEC3"
        },
        {
            "bufferView" : 25,
            "componentType" : 5126,
            "count" : 607,
            "type" : "VEC3"
        },
        {
            "bufferView" : 26,
            "componentType" : 5126,
            "count" : 607,
            "type" : "VEC2"
        },
        {
            "bufferView" : 27,
            "componentType" : 5123,
            "count" : 1008,
            "type" : "SCALAR"
        },
        {
            "bufferView" : 28,
            "componentType" : 5126,
            "count" : 668,
            "max" : [
                6.214031219482422,
                4.929690361022949,
                2
            ],
            "min" : [
                -6.214031219482422,
                -1.0181392431259155,
                -2
            ],
            "type" : "VEC3"
        },
        {
            "bufferView" : 29,
            "componentType" : 5126,
            "count" : 668,
            "type" : "VEC3"
        },
        {
            "bufferView" : 30,
            "componentType" : 5126,
            "count" : 668,
            "type" : "VEC2"
        },
        {
            "bufferView" : 31,
            "componentType" : 5123,
            "count" : 1056,
            "type" : "SCALAR"
        }
    ],
    "bufferViews" : [
        {
            "buffer" : 0,
            "byteLength" : 176292,
            "byteOffset" : 0
        },
        {
            "buffer" : 0,
            "byteLength" : 176292,
            "byteOffset" : 176292
        },
        {
            "buffer" : 0,
            "byteLength" : 117528,
            "byteOffset" : 352584
        },
        {
            "buffer" : 0,
            "byteLength" : 156666,
            "byteOffset" : 470112
        },
        {
            "buffer" : 0,
            "byteLength" : 50280,
            "byteOffset" : 626780
        },
        {
            "buffer" : 0,
            "byteLength" : 50280,
            "byteOffset" : 677060
        },
        {
            "buffer" : 0,
            "byteLength" : 33520,
            "byteOffset" : 727340
        },
        {
            "buffer" : 0,
            "byteLength" : 28674,
            "byteOffset" : 760860
        },
        {
            "buffer" : 0,
            "byteLength" : 14952,
            "byteOffset" : 789536
        },
        {
            "buffer" : 0,
            "byteLength" : 14952,
            "byteOffset" : 804488
        },
        {
            "buffer" : 0,
            "byteLength" : 9968,
            "byteOffset" : 819440
        },
        {
            "buffer" : 0,
            "byteLength" : 8454,
            "byteOffset" : 829408
        },
        {
            "buffer" : 0,
            "byteLength" : 7368,
            "byteOffset" : 837864
        },
        {
            "buffer" : 0,
            "byteLength" : 7368,
            "byteOffset" : 845232
        },
        {
            "buffer" : 0,
            "byteLength" : 4912,
            "byteOffset" : 852600
        },
        {
            "buffer" : 0,
            "byteLength" : 5856,
            "byteOffset" : 857512
        },
        {
            "buffer" : 0,
            "byteLength" : 29640,
            "byteOffset" : 863368
        },
        {
            "buffer" : 0,
            "byteLength" : 29640,
            "byteOffset" : 893008
        },
        {
            "buffer" : 0,
            "byteLength" : 19760,
            "byteOffset" : 922648
        },
        {
            "buffer" : 0,
            "byteLength" : 16212,
            "byteOffset" : 942408
        },
        {
            "buffer" : 0,
            "byteLength" : 2928,
            "byteOffset" : 958620
        },
        {
            "buffer" : 0,
            "byteLength" : 2928,
            "byteOffset" : 961548
        },
        {
            "buffer" : 0,
            "byteLength" : 1952,
            "byteOffset" : 964476
        },
        {
            "buffer" : 0,
            "byteLength" : 1608,
            "byteOffset" : 966428
        },
        {
            "buffer" : 0,
            "byteLength" : 7284,
            "byteOffset" : 968036
        },
        {
            "buffer" : 0,
            "byteLength" : 7284,
            "byteOffset" : 975320
        },
        {
            "buffer" : 0,
            "byteLength" : 4856,
            "byteOffset" : 982604
        },
        {
            "buffer" : 0,
            "byteLength" : 2016,
            "byteOffset" : 987460
        },
        {
            "buffer" : 0,
            "byteLength" : 8016,
            "byteOffset" : 989476
        },
        {
            "buffer" : 0,
            "byteLength" : 8016,
            "byteOffset" : 997492
        },
        {
            "buffer" : 0,
            "byteLength" : 5344,
            "byteOffset" : 1005508
        },
        {
            "buffer" : 0,
            "byteLength" : 2112,
            "byteOffset" : 1010852
        }
    ],
    "buffers" : [
        {
            "byteLength" : 1012964,
            "uri" : "terrain.bin"
        }
    ]
}
